<svg width="1280" height="720" xmlns="http://www.w3.org/2000/svg" xmlns:xlink="http://www.w3.org/1999/xlink" 
overflow="hidden">

<defs><linearGradient x1="598" y1="71" x2="598" y2="601" gradientUnits="userSpaceOnUse" 
spreadMethod="reflect" id="fill0"><stop offset="0" stop-color="#90102B"/><stop offset="0.47" stop-color="#B01435"/>
<stop offset="0.83" stop-color="#E72952"/><stop offset="1" stop-color="#E72952"/></linearGradient></defs>

<g><rect x="0" y="0" width="1280" height="720" fill="#FFFFFF"/>
<path d="M874.938 599.988 875 601 873.838 601ZM718.304 488.322 717.977 488.618 708.499 497.212 708.499 497.212 717.977 
488.618 718.305 488.322ZM628.567 417.812 628.567 417.812 639.177 428.352 707.19 495.911 716.87 486.897 736.907 468.237 
744.883 460.81 716.87 486.897 716.87 486.897 707.19 495.911ZM474.965 293.406 455.32 322.738 455.32 311.218ZM510.221 
240.767 510.221 240.767 510.22 240.767ZM704.791 164.766 704.791 170.931 704.791 170.931 704.791 170.931 704.791 164.766ZM664.404 
164.4 655.364 177.454 664.404 164.4ZM673.569 151.166 673.568 151.166 664.404 164.399 658.824 159.382 658.824 159.382 
658.824 159.382 634.545 194.441 652.431 168.613 658.824 159.382 660.981 161.321 664.404 164.399 673.568 151.166 673.569 
151.166 704.28 171.728 704.28 171.728 704.79 170.931 704.791 170.931 704.28 171.728ZM510.22 145.941 510.221 166.055 510.22 
240.767 474.965 293.406 455.32 311.218 455.32 231.715ZM704.791 126.309 704.791 164.766 704.791 164.766 707.59 166.556 707.59 
166.556 704.791 164.766 704.791 126.309ZM690.782 126.309 676.625 146.752 690.782 126.309ZM721.275 82.2784 717.645 87.5196 
715.44 90.7041ZM715.154 78.042 715.154 78.0421 715.154 78.0423 721.275 82.278 721.275 82.2778ZM566.264 76.1658 566.265 
76.167 589.754 91.1902 589.755 91.1902ZM558.187 71.0001 558.187 71.0002 560.518 71.0002 566.263 76.1654 566.263 76.1656 
560.518 71.0001 769.379 71.0001 704.791 170.993 704.791 170.932 704.791 170.932 704.791 170.993 704.791 170.993 675.763 
215.932 675.921 216.035 656.913 245.731 612.59 312.724 582.637 279.711 612.59 312.724 577.885 365.18 556.942 394.235 
538.974 419.164 531.472 426.776 646.594 540.161 751.736 540.161 719.36 508 719.36 508 719.108 508.253 708.186 497.496 
706.875 496.205 706.875 496.205 605.141 396.007 640.148 343.096 708.996 418.976 746.005 459.765 746.005 459.765 747.718 
461.654 746.596 462.671 744.883 460.81 745.419 460.311 744.883 460.81 707.59 420.268 744.883 460.81 744.883 460.81 
744.883 460.81 744.883 460.81 746.596 462.672 755.184 472.009 728.685 498.632 718.305 488.322 728.684 498.632 728.685 
498.632 728.685 498.632 755.185 472.009 775.393 493.978 873.837 600.999 594.342 601 606.005 590.139 594.026 601 570.379 
574.939 565.302 569.343 565.285 569.324 510.22 508.635 510.22 508.636 565.285 569.324 510.221 508.812 510.22 508.754 
510.22 508.812 459.727 453.324 459.727 453.324 455.32 448.48 455.319 448.127 459.858 453.129 459.858 453.129 459.858 
453.129 510.22 377.934 510.221 377.934 516.589 368.426 578.822 275.507 578.822 275.507 657.435 158.133 657.435 158.134 
665.652 145.865 667.382 147.024 667.382 147.024 667.382 147.024 670.35 142.738 676.625 146.752 676.625 146.752 670.35 
142.738 681.728 126.309 586.88 126.309 510.221 240.767 510.221 166.055 510.221 145.941 510.22 145.941 510.22 145.941 ,
510.22 145.94ZM510.22 71 510.22 145.941 455.319 231.715 455.319 126.793 378.98 126.793 378.98 539.753 455.319 539.753 
455.319 503.398 510.22 563.731 510.22 601 321 601 321 71.0001Z" fill="url(#fill0)" fill-rule="evenodd"/></g></svg>